<svg version="1.1" xmlns="http://www.w3.org/2000/svg" xmlns:xlink="http://www.w3.org/1999/xlink" width="3199.99999999" height="3092.8203230300005"><g fill="#ffffff" fill-rule="nonzero" stroke="none" stroke-width="1" stroke-linecap="butt" stroke-linejoin="miter" stroke-miterlimit="10" stroke-dasharray="" stroke-dashoffset="0" font-family="none" font-weight="none" font-size="none" text-anchor="none" style="mix-blend-mode: normal"><g id="dreamEngine.v1.Finished"><g id="logoGraphic 1"><g data-paper-data="{&quot;styled&quot;:true}" id="border 1 1"><g data-paper-data="{&quot;styled&quot;:true}" id="border 1 1 1"><path d="M351.47186257500016,351.47186257500016c468.62915010000006,-468.62915010000006 1228.42712474,-468.62915010000006 1697.0562748399998,0c468.62915010000006,468.62915010000006 468.62915010000006,1228.42712475 0,1697.05627485c-468.62915009999983,468.62915010000006 -1228.4271247399997,468.62915010000006 -1697.0562748399998,0c-468.62915010000006,-468.62915010000006 -468.62915010000006,-1228.42712475 0,-1697.05627485zM492.89321880500006,1907.1067811850003c390.52429175,390.52429175 1023.68927063,390.52429175 1414.21356238,0c390.52429174999975,-390.52429175 390.52429174999975,-1023.6892706200001 0,-1414.21356237c-390.52429175,-390.52429175 -1023.68927063,-390.52429175 -1414.21356238,0c-390.52429175,390.52429175 -390.52429175,1023.6892706200001 0,1414.21356237z"></path></g><g data-paper-data="{&quot;styled&quot;:true}" id="border 1 1 1"><path d="M1151.4718625750002,351.47186257500016c468.62915009999983,-468.62915010000006 1228.4271247399997,-468.62915010000006 1697.0562748399998,0c468.62915010000006,468.62915010000006 468.62915010000006,1228.42712475 0,1697.05627485c-468.62915010000006,468.62915010000006 -1228.42712474,468.62915010000006 -1697.0562748399998,0c-468.62915010000006,-468.62915010000006 -468.62915010000006,-1228.42712475 0,-1697.05627485zM1292.893218805,1907.1067811850003c390.52429175,390.52429175 1023.6892706299999,390.52429175 1414.2135623799998,0c390.52429175,-390.52429175 390.52429175,-1023.6892706200001 0,-1414.21356237c-390.52429175,-390.52429175 -1023.6892706299999,-390.52429175 -1414.2135623799998,0c-390.52429175,390.52429175 -390.52429175,1023.6892706200001 0,1414.21356237z"></path></g><g data-paper-data="{&quot;styled&quot;:true}" id="border 1 1 1"><path d="M751.471862575,1044.2921856050002c468.62915009999995,-468.62915009999995 1228.4271247400002,-468.62915009999995 1697.0562748399998,0c468.62915010000006,468.62915010000006 468.62915010000006,1228.42712475 0,1697.05627485c-468.62915009999983,468.62915010000006 -1228.42712474,468.62915010000006 -1697.0562748399998,0c-468.62915009999995,-468.62915010000006 -468.62915009999995,-1228.42712475 0,-1697.05627485zM892.893218805,2599.9271042150003c390.52429175,390.52429175 1023.68927063,390.52429175 1414.2135623799998,0c390.52429175,-390.52429175 390.52429175,-1023.6892706200001 0,-1414.21356237c-390.52429174999975,-390.52429175 -1023.6892706299999,-390.52429175 -1414.2135623799998,0c-390.52429175,390.52429175 -390.52429175,1023.6892706200001 0,1414.21356237z"></path></g></g></g></g></g></svg>